<?xml version="1.0" standalone="no"?>
<!DOCTYPE svg PUBLIC "-//W3C//DTD SVG 20010904//EN"
 "http://www.w3.org/TR/2001/REC-SVG-20010904/DTD/svg10.dtd">
<svg version="1.0" xmlns="http://www.w3.org/2000/svg"
 width="1161.000000pt" height="1280.000000pt" viewBox="0 0 1161.000000 1280.000000"
 preserveAspectRatio="xMidYMid meet">
<metadata>
Created by potrace 1.15, written by Peter Selinger 2001-2017
</metadata>
<g transform="translate(0.000000,1280.000000) scale(0.100000,-0.100000)"
fill="#009688" stroke="none">
<path d="M5839 12789 c-75 -5 -172 -12 -215 -16 l-79 -8 -3 -114 -3 -114 38 6
c51 8 325 36 388 39 l50 3 3 108 c3 106 2 107 -20 106 -13 -1 -84 -6 -159 -10z"/>
<path d="M6038 12694 l-3 -107 140 7 c77 3 184 6 238 6 l98 0 -3 98 -3 97
-232 3 -232 2 -3 -106z"/>
<path d="M6530 12696 l0 -93 183 -7 c100 -4 206 -9 235 -12 l52 -6 0 90 0 91
-52 5 c-93 11 -309 26 -364 26 l-54 0 0 -94z"/>
<path d="M5435 12753 c-100 -13 -358 -55 -371 -60 -10 -4 -14 -24 -14 -84 l0
-79 238 2 237 3 3 113 3 112 -33 -1 c-18 -1 -46 -4 -63 -6z"/>
<path d="M7020 12671 l0 -89 68 -7 c37 -3 132 -14 212 -22 217 -25 194 -31
198 59 2 66 0 77 -15 82 -22 6 -273 42 -358 51 -33 3 -70 8 -82 11 -23 4 -23
2 -23 -85z"/>
<path d="M4950 12673 c-120 -27 -495 -125 -510 -134 -9 -5 115 -9 288 -9 l302
0 0 80 c0 44 -3 79 -7 79 -5 -1 -37 -8 -73 -16z"/>
<path d="M7512 12613 l3 -78 339 -3 c187 -1 336 1 332 5 -13 13 -627 153 -671
153 -3 0 -5 -35 -3 -77z"/>
<path d="M4255 12474 c-66 -24 -137 -51 -157 -60 l-38 -17 0 -139 c0 -76 4
-138 8 -138 4 0 64 24 132 54 69 29 173 71 232 92 l108 39 0 108 0 107 -82 -1
c-73 0 -98 -6 -203 -45z"/>
<path d="M4560 12416 l0 -103 138 42 c75 23 181 53 235 65 l97 24 0 38 0 38
-235 0 -235 0 0 -104z"/>
<path d="M7641 12516 c5 -4 323 -76 339 -76 5 0 10 18 10 40 l0 40 -177 0
c-97 0 -174 -2 -172 -4z"/>
<path d="M8010 12476 c0 -50 -11 -43 120 -76 25 -6 111 -31 191 -56 81 -24
150 -44 153 -44 3 0 6 33 6 73 l0 74 -102 34 c-92 30 -117 34 -235 37 l-133 4
0 -46z"/>
<path d="M8502 12363 l3 -76 125 -47 c69 -26 172 -68 230 -94 57 -25 108 -46
112 -46 4 0 8 34 8 75 l0 75 -57 26 c-87 39 -196 82 -316 125 l-108 39 3 -77z"/>
<path d="M3937 12346 c-115 -53 -337 -164 -354 -178 -8 -6 -13 -34 -13 -69 l0
-59 173 0 173 0 64 33 65 32 3 143 c1 78 -1 142 -5 142 -5 0 -52 -20 -106 -44z"/>
<path d="M8992 12163 l3 -78 48 -23 c45 -21 60 -22 200 -20 l152 3 -192 98
c-106 53 -198 97 -203 97 -7 0 -10 -28 -8 -77z"/>
<path d="M3455 12097 l-89 -52 88 -3 c49 -2 90 -1 93 1 2 3 3 28 1 55 l-3 51
-90 -52z"/>
<path d="M3320 12013 c-14 -9 -73 -50 -132 -91 l-108 -75 0 -148 0 -149 44 0
c37 0 53 7 98 43 77 63 308 227 319 227 5 0 9 47 9 105 l0 105 -103 0 c-79 0
-108 -4 -127 -17z"/>
<path d="M3577 12023 c-8 -7 -10 -173 -2 -173 3 0 67 36 142 80 75 44 140 80
145 80 4 0 8 5 8 10 0 11 -282 14 -293 3z"/>
<path d="M9145 12014 c23 -17 291 -173 312 -181 10 -4 13 13 13 81 0 85 0 86
-30 101 -22 11 -63 15 -172 15 -130 -1 -141 -2 -123 -16z"/>
<path d="M9480 11901 l0 -88 73 -48 c39 -27 122 -86 183 -132 109 -81 113 -83
168 -83 l56 0 0 59 0 60 -57 43 c-116 88 -402 278 -418 278 -3 0 -5 -40 -5
-89z"/>
<path d="M2949 11742 c-58 -48 -132 -111 -164 -139 l-59 -53 167 0 167 0 0
140 c0 77 -1 140 -2 140 -2 0 -51 -40 -109 -88z"/>
<path d="M9980 11600 l0 -50 63 0 62 1 -45 40 c-76 67 -80 68 -80 9z"/>
<path d="M2647 11472 l-57 -58 0 -177 0 -177 38 0 c34 1 43 8 112 87 41 47
130 137 198 201 109 103 122 119 122 148 l0 34 -178 0 -178 0 -57 -58z"/>
<path d="M9980 11487 c0 -43 3 -46 190 -235 l190 -192 45 0 46 0 -3 92 -3 92
-154 143 -155 143 -78 0 -78 0 0 -43z"/>
<path d="M2475 11288 c-50 -56 -113 -130 -139 -163 l-49 -60 138 -3 c76 -1
139 -1 142 1 2 2 2 77 1 166 l-3 163 -90 -104z"/>
<path d="M5285 11373 c-84 -10 -193 -25 -212 -30 -22 -5 -23 -8 -23 -144 l0
-139 240 0 240 0 0 160 0 160 -107 -1 c-60 -1 -121 -4 -138 -6z"/>
<path d="M5540 11222 l0 -162 240 0 240 0 0 134 c0 120 -2 135 -17 140 -42 13
-227 36 -340 42 l-123 7 0 -161z"/>
<path d="M4868 11295 c-65 -19 -159 -51 -210 -72 l-93 -38 -3 -63 -3 -62 236
0 235 0 0 135 c0 160 14 151 -162 100z"/>
<path d="M6038 11324 c-2 -1 -2 -61 0 -133 l3 -131 235 0 234 0 0 55 0 55 -57
26 c-108 48 -404 140 -415 128z"/>
<path d="M10470 11132 l0 -72 66 0 66 0 -30 38 c-17 20 -46 53 -66 71 l-36 35
0 -72z"/>
<path d="M4425 11115 l-100 -55 108 0 107 0 0 55 c0 30 -3 55 -7 55 -5 -1 -53
-25 -108 -55z"/>
<path d="M6530 11111 l0 -51 92 0 c50 0 89 2 87 4 -2 1 -43 24 -91 50 l-88 48
0 -51z"/>
<path d="M2258 11023 c-9 -10 -50 -67 -92 -127 l-77 -110 3 -110 3 -111 106
-3 106 -3 58 93 c33 51 92 139 132 195 65 91 73 107 73 147 l0 46 -148 0
c-129 0 -151 -2 -164 -17z"/>
<path d="M4232 11000 c-35 -22 -88 -58 -118 -81 l-55 -40 3 -157 3 -157 238
-3 237 -2 0 240 0 240 -122 0 -123 0 -63 -40z"/>
<path d="M4560 10800 l0 -240 235 0 235 0 0 240 0 240 -235 0 -235 0 0 -240z"/>
<path d="M5050 10800 l0 -240 238 2 237 3 3 238 2 237 -240 0 -240 0 0 -240z"/>
<path d="M5542 10803 l3 -238 238 -3 237 -2 0 240 0 240 -240 0 -240 0 2 -237z"/>
<path d="M6038 10804 c-2 -130 -1 -238 1 -240 2 -2 109 -4 238 -4 l233 0 0
240 0 240 -235 0 -234 0 -3 -236z"/>
<path d="M6530 10800 l0 -240 235 0 235 0 0 138 0 138 -32 31 c-18 17 -76 63
-128 102 l-95 71 -107 0 -108 0 0 -240z"/>
<path d="M10470 10978 c0 -61 1 -63 88 -192 49 -72 101 -152 116 -178 l28 -48
129 0 129 0 0 -245 0 -245 135 0 135 0 -10 24 c-16 44 -102 210 -173 336 -107
189 -234 373 -413 596 -8 10 -35 14 -88 14 l-76 0 0 -62z"/>
<path d="M4000 10834 c-103 -85 -250 -243 -250 -267 0 -4 65 -7 145 -7 110 0
147 3 151 13 2 7 3 77 2 156 l-3 142 -45 -37z"/>
<path d="M7020 10691 l0 -131 115 0 c97 0 115 2 108 14 -10 17 -189 220 -209
237 -12 10 -14 -8 -14 -120z"/>
<path d="M2018 10666 c-27 -46 -48 -89 -48 -95 0 -8 17 -11 53 -9 l52 3 3 93
c1 50 -1 92 -5 92 -4 0 -29 -38 -55 -84z"/>
<path d="M1896 10442 c-46 -92 -126 -270 -157 -349 l-9 -23 175 0 175 0 -2
238 -3 237 -62 3 -62 3 -55 -109z"/>
<path d="M2091 10333 l0 -218 19 40 c18 38 180 372 188 388 2 4 -44 7 -102 7
l-106 0 1 -217z"/>
<path d="M3714 10495 c-35 -75 -42 -151 -19 -199 25 -53 101 -109 232 -172 61
-30 114 -54 117 -54 4 0 6 108 6 240 l0 240 -156 0 -155 0 -25 -55z"/>
<path d="M4067 10543 c-4 -3 -7 -111 -7 -240 l0 -233 240 0 240 0 0 240 0 240
-233 0 c-129 0 -237 -3 -240 -7z"/>
<path d="M4560 10310 l0 -240 235 0 235 0 0 240 0 240 -235 0 -235 0 0 -240z"/>
<path d="M5050 10310 l0 -240 238 2 237 3 0 235 0 235 -237 3 -238 2 0 -240z"/>
<path d="M5540 10310 l0 -240 240 0 240 0 0 240 0 240 -240 0 -240 0 0 -240z"/>
<path d="M6040 10545 c0 -3 0 -110 -1 -237 l0 -233 236 -3 235 -2 0 240 0 240
-235 0 c-129 0 -235 -2 -235 -5z"/>
<path d="M6530 10310 l0 -240 235 0 235 0 0 240 0 240 -235 0 -235 0 0 -240z"/>
<path d="M7020 10310 l0 -240 240 0 240 0 0 43 c0 50 -73 195 -172 343 l-63
94 -122 0 -123 0 0 -240z"/>
<path d="M10784 10398 c40 -84 90 -198 111 -253 21 -55 42 -104 47 -110 5 -5
7 102 6 250 l-3 260 -117 3 -117 3 73 -153z"/>
<path d="M7510 9850 l0 -270 80 0 c78 0 80 1 76 23 -41 187 -138 517 -152 517
-2 0 -4 -121 -4 -270z"/>
<path d="M1681 9928 c-56 -171 -81 -266 -81 -310 l0 -38 174 0 173 0 18 83
c10 45 35 143 57 217 22 74 43 143 45 153 5 16 -8 17 -170 17 l-175 0 -41
-122z"/>
<path d="M4135 10040 c11 -5 85 -37 165 -71 80 -34 166 -72 193 -85 l47 -24 0
95 0 95 -212 -1 c-136 0 -206 -4 -193 -9z"/>
<path d="M4560 9951 l0 -99 58 -32 c81 -46 187 -119 268 -184 56 -45 76 -56
107 -56 l37 0 0 235 0 235 -235 0 -235 0 0 -99z"/>
<path d="M5050 9815 l0 -235 240 0 240 0 0 235 0 235 -240 0 -240 0 0 -235z"/>
<path d="M5540 9815 l0 -235 240 0 240 0 0 235 0 235 -240 0 -240 0 0 -235z"/>
<path d="M6038 9815 l3 -235 234 0 235 0 0 235 0 235 -237 0 -238 0 3 -235z"/>
<path d="M6530 9815 l0 -235 235 0 235 0 0 235 0 235 -235 0 -235 0 0 -235z"/>
<path d="M7020 9815 l0 -235 240 0 240 0 0 235 0 235 -240 0 -240 0 0 -235z"/>
<path d="M10962 9988 c2 -35 17 -110 32 -168 16 -58 34 -134 40 -170 l12 -65
182 -3 c110 -1 182 1 182 7 0 16 -89 267 -129 364 l-39 92 -142 3 -142 3 4
-63z"/>
<path d="M1600 9325 l0 -235 144 0 143 0 7 88 c7 84 27 253 42 340 l7 42 -172
0 -171 0 0 -235z"/>
<path d="M5050 9521 c0 -30 8 -49 37 -83 54 -64 123 -174 168 -266 l39 -82
118 0 118 0 0 235 0 235 -240 0 -240 0 0 -39z"/>
<path d="M5540 9325 l0 -235 240 0 240 0 0 235 0 235 -240 0 -240 0 0 -235z"/>
<path d="M6038 9325 l-3 -235 238 0 237 0 0 235 0 235 -235 0 -234 0 -3 -235z"/>
<path d="M6530 9325 l0 -235 235 0 235 0 0 235 0 235 -235 0 -235 0 0 -235z"/>
<path d="M7020 9325 l0 -235 240 0 240 0 0 235 0 235 -240 0 -240 0 0 -235z"/>
<path d="M7510 9325 l0 -235 101 0 102 0 -7 128 c-7 130 -23 293 -32 325 -5
14 -18 17 -85 17 l-79 0 0 -235z"/>
<path d="M11055 9533 c13 -74 25 -189 30 -288 10 -174 -13 -155 185 -155 l170
0 0 204 c0 121 -4 216 -11 235 l-11 31 -184 0 -183 0 4 -27z"/>
<path d="M1516 9218 c-3 -13 -7 -47 -8 -76 l-3 -52 38 0 37 0 0 75 0 75 -30 0
c-23 0 -31 -5 -34 -22z"/>
<path d="M11460 9120 c0 -28 3 -30 35 -30 24 0 35 5 35 14 0 32 -13 46 -41 46
-26 0 -29 -4 -29 -30z"/>
<path d="M1509 9063 c-3 -18 2 -130 7 -154 4 -22 9 -25 34 -21 l30 4 0 89 0
89 -35 0 c-19 0 -36 -3 -36 -7z"/>
<path d="M1600 8830 l0 -240 144 0 144 0 -2 240 -1 240 -142 0 -143 0 0 -240z"/>
<path d="M5319 9018 c27 -78 61 -229 74 -332 l13 -91 59 0 60 0 3 238 2 237
-114 0 -115 0 18 -52z"/>
<path d="M5540 8830 l0 -240 240 0 240 0 0 240 0 240 -240 0 -240 0 0 -240z"/>
<path d="M6040 9065 c0 -3 0 -110 -1 -237 l0 -233 236 -3 235 -2 0 240 0 240
-235 0 c-129 0 -235 -2 -235 -5z"/>
<path d="M6530 8830 l0 -240 235 0 235 0 0 240 0 240 -235 0 -235 0 0 -240z"/>
<path d="M7020 8830 l0 -240 238 2 237 3 3 238 2 237 -240 0 -240 0 0 -240z"/>
<path d="M7512 8833 l3 -238 81 -3 81 -3 7 49 c10 80 26 292 26 365 l0 67
-100 0 -100 0 2 -237z"/>
<path d="M11096 8913 c-3 -87 -9 -195 -13 -240 l-6 -83 182 0 181 0 0 240 0
240 -168 0 -169 0 -7 -157z"/>
<path d="M11460 8830 l0 -240 64 0 c36 0 67 3 69 8 5 10 -19 232 -39 365 l-16
107 -39 0 -39 0 0 -240z"/>
<path d="M1600 8340 l0 -240 191 0 191 0 -6 23 c-23 84 -59 268 -69 352 l-12
100 -148 3 -147 3 0 -241z"/>
<path d="M5407 8358 c-3 -123 -8 -231 -12 -240 -6 -16 0 -18 64 -18 l71 0 -2
238 -3 237 -56 3 -56 3 -6 -223z"/>
<path d="M5547 8574 c-4 -4 -7 -112 -7 -241 l0 -233 240 0 240 0 -2 238 -3
237 -231 3 c-127 1 -233 -1 -237 -4z"/>
<path d="M6039 8576 c-2 -2 -3 -110 -1 -240 l3 -236 234 0 235 0 0 240 0 240
-233 0 c-129 0 -236 -2 -238 -4z"/>
<path d="M6530 8340 l0 -240 235 0 235 0 0 240 0 240 -235 0 -235 0 0 -240z"/>
<path d="M7020 8340 l0 -240 240 0 240 0 -2 238 -3 237 -237 3 -238 2 0 -240z"/>
<path d="M7517 8573 c-4 -3 -7 -112 -7 -240 l0 -234 37 3 38 3 22 95 c30 132
71 368 65 375 -8 7 -147 6 -155 -2z"/>
<path d="M11075 8568 c-2 -7 -11 -58 -20 -113 -9 -55 -30 -156 -46 -224 -16
-68 -29 -125 -29 -127 0 -2 104 -4 230 -4 l230 0 0 240 0 240 -180 0 c-136 0
-182 -3 -185 -12z"/>
<path d="M11460 8340 l0 -240 75 0 75 0 -1 168 c-1 92 -4 199 -8 237 l-6 70
-67 3 -68 3 0 -241z"/>
<path d="M1556 8499 c-10 -17 -81 -114 -156 -215 l-139 -184 160 0 159 0 0
215 c0 118 -1 215 -3 215 -1 0 -11 -14 -21 -31z"/>
<path d="M1177 7996 l-67 -84 0 -151 0 -151 235 0 235 0 0 235 0 235 -168 0
-169 0 -66 -84z"/>
<path d="M1600 7845 l0 -235 240 0 240 0 0 110 c0 97 -3 118 -29 182 -15 40
-36 97 -45 126 l-18 52 -194 0 -194 0 0 -235z"/>
<path d="M5385 8043 c-15 -90 -60 -255 -91 -337 -19 -48 -34 -90 -34 -92 0 -2
61 -4 135 -4 l135 0 0 235 0 235 -70 0 -69 0 -6 -37z"/>
<path d="M5540 7845 l0 -235 240 0 240 0 0 235 0 235 -240 0 -240 0 0 -235z"/>
<path d="M6038 7845 l-3 -235 238 0 237 0 0 235 0 235 -235 0 -234 0 -3 -235z"/>
<path d="M6530 7845 l0 -235 235 0 235 0 0 235 0 235 -235 0 -235 0 0 -235z"/>
<path d="M7020 7845 l0 -235 204 0 204 0 36 101 c35 97 36 106 36 235 l0 134
-240 0 -240 0 0 -235z"/>
<path d="M10966 8064 c-3 -9 -6 -114 -6 -235 l0 -219 240 0 240 0 0 235 0 235
-234 0 c-204 0 -235 -2 -240 -16z"/>
<path d="M11460 7845 l0 -235 59 0 58 0 12 158 c6 86 14 192 17 235 l6 77 -76
0 -76 0 0 -235z"/>
<path d="M10933 7953 c-17 -50 -108 -273 -125 -305 l-18 -38 80 0 80 0 0 180
c0 99 -2 180 -5 180 -3 0 -8 -8 -12 -17z"/>
<path d="M978 7748 l-107 -133 106 -3 c58 -1 107 -1 110 1 2 2 2 64 1 136 l-3
132 -107 -133z"/>
<path d="M2090 7697 l0 -87 51 0 51 0 -42 78 c-23 42 -46 81 -51 87 -5 5 -9
-27 -9 -78z"/>
<path d="M730 7439 l-121 -151 3 -86 3 -87 238 -3 237 -2 0 240 0 240 -120 0
-120 0 -120 -151z"/>
<path d="M1110 7350 l0 -240 235 0 235 0 0 240 0 240 -235 0 -235 0 0 -240z"/>
<path d="M1600 7350 l0 -240 238 2 237 3 3 238 2 237 -240 0 -240 0 0 -240z"/>
<path d="M2092 7353 l3 -238 259 -3 259 -2 -134 138 c-79 81 -163 180 -204
239 l-70 102 -58 1 -57 0 2 -237z"/>
<path d="M5210 7523 c-19 -37 -62 -106 -97 -154 l-63 -88 0 -86 0 -85 238 2
237 3 3 238 2 237 -142 0 -143 0 -35 -67z"/>
<path d="M5542 7353 l3 -238 235 0 235 0 3 238 2 237 -240 0 -240 0 2 -237z"/>
<path d="M6038 7354 c-2 -130 -1 -238 1 -240 2 -2 109 -4 238 -4 l233 0 0 240
0 240 -235 0 -234 0 -3 -236z"/>
<path d="M6530 7350 l0 -240 235 0 235 0 0 240 0 240 -235 0 -235 0 0 -240z"/>
<path d="M7022 7353 l3 -238 95 0 95 0 29 60 c39 82 123 276 152 353 l24 62
-200 0 -200 0 2 -237z"/>
<path d="M10730 7493 c-29 -54 -91 -156 -138 -228 -48 -71 -88 -136 -90 -143
-3 -10 43 -12 220 -10 l223 3 3 238 2 237 -84 0 -84 0 -52 -97z"/>
<path d="M10962 7353 l3 -238 235 0 235 0 3 238 2 237 -240 0 -240 0 2 -237z"/>
<path d="M11460 7420 l0 -170 25 -6 c14 -4 28 -4 31 -1 6 6 54 299 54 330 0
14 -9 17 -55 17 l-55 0 0 -170z"/>
<path d="M538 7198 c-32 -41 -58 -78 -58 -82 0 -13 111 -6 116 7 3 8 4 45 2
82 l-3 68 -57 -75z"/>
<path d="M4958 7186 c-38 -34 -68 -65 -68 -69 0 -4 32 -7 70 -7 l70 0 0 70 c0
39 -1 70 -2 70 -2 -1 -33 -29 -70 -64z"/>
<path d="M387 6998 c-77 -106 -247 -362 -247 -372 0 -3 104 -6 230 -6 l230 0
0 240 0 240 -69 0 -70 0 -74 -102z"/>
<path d="M614 7087 c-2 -7 -3 -114 -2 -237 l3 -225 238 -3 237 -2 0 240 0 240
-235 0 c-182 0 -237 -3 -241 -13z"/>
<path d="M1110 6860 l0 -240 235 0 235 0 0 240 0 240 -235 0 -235 0 0 -240z"/>
<path d="M1600 6860 l0 -240 240 0 240 0 0 240 0 240 -240 0 -240 0 0 -240z"/>
<path d="M2090 6860 l0 -240 240 0 240 0 0 240 0 240 -240 0 -240 0 0 -240z"/>
<path d="M2590 6860 l0 -240 235 0 235 0 0 118 0 118 -86 38 c-96 44 -191 99
-279 163 -32 24 -69 43 -82 43 l-23 0 0 -240z"/>
<path d="M4799 7053 c-36 -27 -104 -70 -152 -97 l-87 -48 0 -144 0 -144 235 0
235 0 0 240 0 240 -83 0 -82 0 -66 -47z"/>
<path d="M5050 6860 l0 -240 238 2 237 3 0 235 0 235 -237 3 -238 2 0 -240z"/>
<path d="M5540 6860 l0 -240 240 0 240 0 0 240 0 240 -240 0 -240 0 0 -240z"/>
<path d="M6040 7095 c0 -3 0 -110 -1 -237 l0 -233 236 -3 235 -2 0 240 0 240
-235 0 c-129 0 -235 -2 -235 -5z"/>
<path d="M6530 6860 l0 -240 213 0 212 0 23 40 c21 37 22 50 22 239 l0 201
-235 0 -235 0 0 -240z"/>
<path d="M7020 6923 c0 -107 4 -173 9 -167 5 5 48 84 96 177 l87 167 -96 0
-96 0 0 -177z"/>
<path d="M10470 6860 l0 -240 238 2 237 3 0 235 0 235 -237 3 -238 2 0 -240z"/>
<path d="M10960 6860 l0 -240 208 0 209 0 31 119 c28 102 32 135 32 240 l0
121 -240 0 -240 0 0 -240z"/>
<path d="M10319 6917 c-70 -72 -165 -166 -212 -207 -47 -41 -86 -78 -86 -82
-1 -5 96 -8 214 -8 l215 0 0 215 c0 118 -1 215 -2 215 -2 0 -60 -60 -129 -133z"/>
<path d="M4412 6854 c-67 -24 -173 -54 -235 -67 l-112 -23 0 -70 0 -69 238 -3
237 -2 0 140 c0 77 -1 140 -2 139 -2 -1 -58 -21 -126 -45z"/>
<path d="M3080 6735 l0 -115 235 0 235 0 0 64 0 64 -96 12 c-99 12 -258 48
-331 74 l-43 15 0 -114z"/>
<path d="M3865 6748 c-60 -5 -152 -7 -202 -5 l-93 4 0 -63 0 -64 240 0 240 0
0 70 0 70 -37 -1 c-21 -1 -87 -6 -148 -11z"/>
<path d="M127 6604 c-4 -4 -7 -112 -7 -241 l0 -233 240 0 240 0 -2 238 -3 237
-231 3 c-127 1 -233 -1 -237 -4z"/>
<path d="M617 6603 c-4 -3 -7 -111 -7 -240 l0 -233 240 0 240 0 0 240 0 240
-233 0 c-129 0 -237 -3 -240 -7z"/>
<path d="M1110 6370 l0 -240 235 0 235 0 0 240 0 240 -235 0 -235 0 0 -240z"/>
<path d="M1600 6370 l0 -240 240 0 240 0 -2 238 -3 237 -237 3 -238 2 0 -240z"/>
<path d="M2097 6604 c-4 -4 -7 -112 -7 -241 l0 -233 240 0 240 0 -2 238 -3
237 -231 3 c-127 1 -233 -1 -237 -4z"/>
<path d="M2590 6370 l0 -240 235 0 235 0 0 240 0 240 -235 0 -235 0 0 -240z"/>
<path d="M3080 6370 l0 -240 235 0 235 0 0 240 0 240 -235 0 -235 0 0 -240z"/>
<path d="M3577 6604 c-4 -4 -7 -112 -7 -241 l0 -233 240 0 240 0 -2 238 -3
237 -231 3 c-127 1 -233 -1 -237 -4z"/>
<path d="M4067 6603 c-4 -3 -7 -111 -7 -240 l0 -233 240 0 240 0 0 240 0 240
-233 0 c-129 0 -237 -3 -240 -7z"/>
<path d="M4560 6370 l0 -240 235 0 235 0 0 240 0 240 -235 0 -235 0 0 -240z"/>
<path d="M5050 6370 l0 -240 240 0 240 0 -2 238 -3 237 -237 3 -238 2 0 -240z"/>
<path d="M5547 6604 c-4 -4 -7 -112 -7 -241 l0 -233 240 0 240 0 -2 238 -3
237 -231 3 c-127 1 -233 -1 -237 -4z"/>
<path d="M6039 6606 c-2 -2 -3 -110 -1 -240 l3 -236 234 0 235 0 0 240 0 240
-233 0 c-129 0 -236 -2 -238 -4z"/>
<path d="M6530 6370 l0 -241 61 3 62 3 64 100 c103 162 211 339 218 358 7 16
-7 17 -199 17 l-206 0 0 -240z"/>
<path d="M9980 6370 l0 -240 235 0 235 0 0 240 0 240 -235 0 -235 0 0 -240z"/>
<path d="M10470 6370 l0 -240 240 0 240 0 -2 238 -3 237 -237 3 -238 2 0 -240z"/>
<path d="M10967 6603 c-4 -3 -7 -111 -7 -240 l0 -233 130 0 129 0 76 231 c41
127 75 235 75 240 0 10 -393 13 -403 2z"/>
<path d="M80 6523 c-73 -191 -86 -252 -75 -338 l6 -55 50 0 49 0 0 225 c0 124
-2 225 -4 225 -3 0 -14 -26 -26 -57z"/>
<path d="M9885 6519 c-33 -28 -138 -109 -232 -181 -171 -130 -173 -131 -173
-169 l0 -39 240 0 240 0 0 220 c0 121 -3 220 -7 219 -5 0 -35 -23 -68 -50z"/>
<path d="M120 6042 l0 -68 48 -36 c71 -53 319 -189 370 -202 12 -3 31 -9 42
-12 20 -5 20 -1 20 190 l0 196 -240 0 -240 0 0 -68z"/>
<path d="M610 5915 c0 -194 0 -195 23 -199 12 -3 58 -10 102 -16 44 -6 104
-22 134 -36 43 -19 70 -24 137 -24 l84 0 0 235 0 235 -240 0 -240 0 0 -195z"/>
<path d="M1110 5875 l0 -235 235 0 235 0 0 235 0 235 -235 0 -235 0 0 -235z"/>
<path d="M1600 5875 l0 -235 240 0 240 0 0 235 0 235 -240 0 -240 0 0 -235z"/>
<path d="M2090 5875 l0 -235 240 0 240 0 0 235 0 235 -240 0 -240 0 0 -235z"/>
<path d="M2590 5875 l0 -235 235 0 235 0 0 235 0 235 -235 0 -235 0 0 -235z"/>
<path d="M3080 5875 l0 -235 235 0 235 0 0 235 0 235 -235 0 -235 0 0 -235z"/>
<path d="M3570 5875 l0 -235 240 0 240 0 0 235 0 235 -240 0 -240 0 0 -235z"/>
<path d="M4060 5875 l0 -235 240 0 240 0 0 235 0 235 -240 0 -240 0 0 -235z"/>
<path d="M4560 5875 l0 -235 235 0 235 0 0 235 0 235 -235 0 -235 0 0 -235z"/>
<path d="M5050 5875 l0 -235 240 0 240 0 0 235 0 235 -240 0 -240 0 0 -235z"/>
<path d="M5540 5875 l0 -235 240 0 240 0 0 235 0 235 -240 0 -240 0 0 -235z"/>
<path d="M6038 5875 l3 -235 165 2 166 3 68 125 69 125 1 108 0 107 -237 0
-238 0 3 -235z"/>
<path d="M6530 6023 l0 -87 46 74 c65 104 64 100 5 100 l-51 0 0 -87z"/>
<path d="M9163 5993 l-173 -116 0 -119 0 -118 240 0 240 0 0 235 0 235 -67 -1
-68 0 -172 -116z"/>
<path d="M9480 5875 l0 -235 240 0 240 0 0 235 0 235 -240 0 -240 0 0 -235z"/>
<path d="M9980 5875 l0 -235 235 0 235 0 0 235 0 235 -235 0 -235 0 0 -235z"/>
<path d="M10470 5875 l0 -235 240 0 240 0 0 235 0 235 -240 0 -240 0 0 -235z"/>
<path d="M10960 5843 c0 -162 4 -263 9 -257 32 33 148 280 215 457 l25 67
-124 0 -125 0 0 -267z"/>
<path d="M8809 5759 c-85 -56 -158 -105 -163 -110 -6 -5 59 -9 162 -9 l172 0
0 110 c0 61 -4 110 -9 110 -4 0 -77 -45 -162 -101z"/>
<path d="M960 5594 c18 -46 10 -106 -29 -228 -21 -67 -42 -145 -45 -173 l-7
-53 106 0 105 0 0 240 0 240 -70 0 -70 0 10 -26z"/>
<path d="M1110 5380 l0 -240 235 0 235 0 0 240 0 240 -235 0 -235 0 0 -240z"/>
<path d="M1600 5380 l0 -240 238 2 237 3 3 238 2 237 -240 0 -240 0 0 -240z"/>
<path d="M2092 5383 l3 -238 238 -3 237 -2 0 240 0 240 -240 0 -240 0 2 -237z"/>
<path d="M2590 5380 l0 -240 235 0 235 0 0 240 0 240 -235 0 -235 0 0 -240z"/>
<path d="M3080 5380 l0 -240 235 0 235 0 0 240 0 240 -235 0 -235 0 0 -240z"/>
<path d="M3570 5380 l0 -240 238 2 237 3 3 238 2 237 -240 0 -240 0 0 -240z"/>
<path d="M4062 5383 l3 -238 238 -3 237 -2 0 240 0 240 -240 0 -240 0 2 -237z"/>
<path d="M4560 5380 l0 -240 235 0 235 0 0 240 0 240 -235 0 -235 0 0 -240z"/>
<path d="M5050 5380 l0 -240 238 2 237 3 3 238 2 237 -240 0 -240 0 0 -240z"/>
<path d="M5542 5383 l3 -238 238 -3 237 -2 0 240 0 240 -240 0 -240 0 2 -237z"/>
<path d="M6040 5390 c0 -126 0 -233 0 -237 0 -5 23 -8 52 -8 l52 0 35 80 c19
44 67 151 107 238 l72 157 -159 0 -159 0 0 -230z"/>
<path d="M8548 5585 l-48 -35 0 -205 0 -205 238 2 237 3 0 235 0 235 -190 2
-190 3 -47 -35z"/>
<path d="M8990 5380 l0 -240 238 2 237 3 3 238 2 237 -240 0 -240 0 0 -240z"/>
<path d="M9482 5383 l3 -238 238 -3 237 -2 0 240 0 240 -240 0 -240 0 2 -237z"/>
<path d="M9980 5380 l0 -240 235 0 235 0 0 240 0 240 -235 0 -235 0 0 -240z"/>
<path d="M10470 5380 l0 -240 105 0 104 0 64 93 c139 198 207 314 207 351 l0
36 -240 0 -240 0 0 -240z"/>
<path d="M8350 5448 c-63 -44 -166 -119 -227 -165 -98 -74 -113 -89 -113 -114
l0 -29 235 0 235 0 0 195 c0 107 -3 195 -7 195 -5 -1 -60 -37 -123 -82z"/>
<path d="M857 5118 c-2 -7 -33 -51 -67 -97 -87 -118 -113 -173 -114 -241 0
-30 6 -72 13 -92 l13 -38 194 0 194 0 0 240 0 240 -114 0 c-82 0 -115 -4 -119
-12z"/>
<path d="M1110 4890 l0 -240 235 0 235 0 0 240 0 240 -235 0 -235 0 0 -240z"/>
<path d="M1600 4890 l0 -240 240 0 240 0 -2 238 -3 237 -237 3 -238 2 0 -240z"/>
<path d="M2097 5123 c-4 -3 -7 -111 -7 -240 l0 -233 240 0 240 0 0 240 0 240
-233 0 c-129 0 -237 -3 -240 -7z"/>
<path d="M2590 4890 l0 -240 235 0 235 0 0 240 0 240 -235 0 -235 0 0 -240z"/>
<path d="M3080 4890 l0 -240 235 0 235 0 0 240 0 240 -235 0 -235 0 0 -240z"/>
<path d="M3570 4890 l0 -240 240 0 240 0 0 240 0 240 -240 0 -240 0 0 -240z"/>
<path d="M4067 5123 c-4 -3 -7 -111 -7 -240 l0 -233 240 0 240 0 0 240 0 240
-233 0 c-129 0 -237 -3 -240 -7z"/>
<path d="M4560 4890 l0 -240 235 0 235 0 0 240 0 240 -235 0 -235 0 0 -240z"/>
<path d="M5050 4890 l0 -240 238 2 237 3 0 235 0 235 -237 3 -238 2 0 -240z"/>
<path d="M5540 4890 l0 -240 217 2 216 3 24 69 c20 62 23 88 23 238 l0 168
-240 0 -240 0 0 -240z"/>
<path d="M6040 5128 c-4 -81 -3 -255 1 -250 3 4 25 57 48 117 24 61 45 116 48
123 4 9 -9 12 -46 12 -28 0 -51 -1 -51 -2z"/>
<path d="M7835 5053 c-49 -43 -143 -129 -207 -192 l-118 -114 0 -49 0 -48 240
0 240 0 0 240 0 240 -32 0 c-26 0 -51 -16 -123 -77z"/>
<path d="M8010 4890 l0 -240 235 0 235 0 0 240 0 240 -235 0 -235 0 0 -240z"/>
<path d="M8500 4890 l0 -240 238 2 237 3 0 235 0 235 -237 3 -238 2 0 -240z"/>
<path d="M8990 4890 l0 -240 240 0 240 0 0 240 0 240 -240 0 -240 0 0 -240z"/>
<path d="M9484 5117 c-2 -7 -3 -114 -2 -237 l3 -225 238 -3 237 -2 0 240 0
240 -235 0 c-182 0 -237 -3 -241 -13z"/>
<path d="M9980 4890 l0 -240 183 0 182 0 53 80 52 80 0 160 0 160 -235 0 -235
0 0 -240z"/>
<path d="M10470 4988 l0 -143 20 25 c11 14 56 78 100 143 l81 117 -100 0 -101
0 0 -142z"/>
<path d="M755 4579 c28 -28 84 -77 125 -109 105 -80 106 -82 82 -122 -11 -18
-35 -46 -52 -63 -18 -16 -50 -51 -72 -77 l-40 -48 146 0 146 0 0 235 0 235
-192 0 -192 0 49 -51z"/>
<path d="M1110 4395 l0 -235 235 0 235 0 0 235 0 235 -235 0 -235 0 0 -235z"/>
<path d="M1600 4395 l0 -235 240 0 240 0 0 235 0 235 -240 0 -240 0 0 -235z"/>
<path d="M2090 4395 l0 -235 240 0 240 0 0 235 0 235 -240 0 -240 0 0 -235z"/>
<path d="M2590 4395 l0 -235 235 0 235 0 0 235 0 235 -235 0 -235 0 0 -235z"/>
<path d="M3080 4395 l0 -235 235 0 235 0 0 235 0 235 -235 0 -235 0 0 -235z"/>
<path d="M3570 4395 l0 -235 240 0 240 0 0 235 0 235 -240 0 -240 0 0 -235z"/>
<path d="M4060 4395 l0 -235 240 0 240 0 0 235 0 235 -240 0 -240 0 0 -235z"/>
<path d="M4560 4395 l0 -235 235 0 235 0 0 235 0 235 -235 0 -235 0 0 -235z"/>
<path d="M5050 4395 l0 -235 240 0 240 0 0 235 0 235 -240 0 -240 0 0 -235z"/>
<path d="M5540 4395 l0 -235 153 0 152 0 34 143 c18 78 46 184 61 235 l27 92
-213 0 -214 0 0 -235z"/>
<path d="M7349 4568 c-99 -119 -215 -285 -268 -385 l-12 -23 216 0 215 0 0
235 0 235 -50 0 c-48 0 -50 -1 -101 -62z"/>
<path d="M7510 4395 l0 -235 240 0 240 0 0 235 0 235 -240 0 -240 0 0 -235z"/>
<path d="M8010 4395 l0 -235 235 0 235 0 0 235 0 235 -235 0 -235 0 0 -235z"/>
<path d="M8500 4395 l0 -235 240 0 240 0 0 235 0 235 -240 0 -240 0 0 -235z"/>
<path d="M8990 4395 l0 -235 240 0 240 0 0 235 0 235 -240 0 -240 0 0 -235z"/>
<path d="M9480 4395 l0 -235 240 0 240 0 0 235 0 235 -240 0 -240 0 0 -235z"/>
<path d="M9980 4395 l0 -235 45 0 45 0 55 110 c50 99 140 258 189 333 l18 27
-176 0 -176 0 0 -235z"/>
<path d="M768 4107 c-44 -92 -29 -138 87 -267 42 -47 90 -104 107 -127 29 -40
34 -43 80 -43 l48 0 0 235 0 235 -153 0 -153 0 -16 -33z"/>
<path d="M1110 3905 l0 -235 235 0 235 0 0 235 0 235 -235 0 -235 0 0 -235z"/>
<path d="M1600 3905 l0 -235 240 0 240 0 0 235 0 235 -240 0 -240 0 0 -235z"/>
<path d="M2090 3905 l0 -235 240 0 240 0 0 235 0 235 -240 0 -240 0 0 -235z"/>
<path d="M2590 3905 l0 -235 235 0 235 0 0 235 0 235 -235 0 -235 0 0 -235z"/>
<path d="M3080 3905 l0 -235 235 0 235 0 0 235 0 235 -235 0 -235 0 0 -235z"/>
<path d="M3570 3905 l0 -235 240 0 240 0 0 235 0 235 -240 0 -240 0 0 -235z"/>
<path d="M4060 3905 l0 -235 240 0 240 0 0 235 0 235 -240 0 -240 0 0 -235z"/>
<path d="M4560 3905 l0 -235 235 0 235 0 0 235 0 235 -235 0 -235 0 0 -235z"/>
<path d="M5050 3905 l0 -235 240 0 240 0 0 235 0 235 -240 0 -240 0 0 -235z"/>
<path d="M5540 3905 l0 -235 110 0 c61 0 110 4 110 8 0 17 50 311 65 380 8 40
15 75 15 78 0 2 -67 4 -150 4 l-150 0 0 -235z"/>
<path d="M7040 4108 c-18 -30 -20 -51 -20 -235 l0 -203 240 0 240 0 0 235 0
235 -220 0 -220 0 -20 -32z"/>
<path d="M7510 3905 l0 -235 240 0 240 0 0 235 0 235 -240 0 -240 0 0 -235z"/>
<path d="M8010 3905 l0 -235 235 0 235 0 0 235 0 235 -235 0 -235 0 0 -235z"/>
<path d="M8500 3905 l0 -235 240 0 240 0 0 235 0 235 -240 0 -240 0 0 -235z"/>
<path d="M8990 3905 l0 -235 240 0 240 0 0 235 0 235 -240 0 -240 0 0 -235z"/>
<path d="M9480 3905 l0 -235 213 0 212 0 25 93 c18 71 25 125 27 235 l4 142
-240 0 -241 0 0 -235z"/>
<path d="M9980 4048 l1 -93 30 70 c55 125 54 115 9 115 l-40 0 0 -92z"/>
<path d="M6950 3913 c-24 -60 -53 -138 -66 -175 l-23 -68 70 0 69 0 0 175 c0
96 -2 175 -4 175 -2 0 -23 -48 -46 -107z"/>
<path d="M1110 3410 l0 -240 235 0 235 0 0 240 0 240 -235 0 -235 0 0 -240z"/>
<path d="M1600 3410 l0 -240 238 2 237 3 3 238 2 237 -240 0 -240 0 0 -240z"/>
<path d="M2092 3413 l3 -238 238 -3 237 -2 0 240 0 240 -240 0 -240 0 2 -237z"/>
<path d="M2590 3410 l0 -240 235 0 235 0 0 240 0 240 -235 0 -235 0 0 -240z"/>
<path d="M3080 3410 l0 -240 235 0 235 0 0 240 0 240 -235 0 -235 0 0 -240z"/>
<path d="M3570 3410 l0 -240 240 0 240 0 0 240 0 240 -240 0 -240 0 0 -240z"/>
<path d="M4062 3413 l3 -238 238 -3 237 -2 0 240 0 240 -240 0 -240 0 2 -237z"/>
<path d="M4560 3410 l0 -240 235 0 235 0 0 240 0 240 -235 0 -235 0 0 -240z"/>
<path d="M5050 3410 l0 -240 238 2 237 3 0 235 0 235 -237 3 -238 2 0 -240z"/>
<path d="M5540 3410 l0 -240 84 0 84 0 7 73 c3 39 13 137 21 216 21 215 32
191 -91 191 l-105 0 0 -240z"/>
<path d="M6821 3533 c-28 -105 -58 -236 -75 -330 l-5 -33 129 0 130 0 0 240 0
240 -73 0 -74 0 -32 -117z"/>
<path d="M7020 3410 l0 -240 238 2 237 3 3 238 2 237 -240 0 -240 0 0 -240z"/>
<path d="M7512 3413 l3 -238 238 -3 237 -2 0 240 0 240 -240 0 -240 0 2 -237z"/>
<path d="M8010 3410 l0 -240 235 0 235 0 0 240 0 240 -235 0 -235 0 0 -240z"/>
<path d="M8500 3410 l0 -240 238 2 237 3 0 235 0 235 -237 3 -238 2 0 -240z"/>
<path d="M8990 3410 l0 -240 240 0 240 0 0 240 0 240 -240 0 -240 0 0 -240z"/>
<path d="M9482 3413 l3 -238 208 -3 207 -2 0 240 0 240 -210 0 -210 0 2 -237z"/>
<path d="M1021 3143 c-14 -28 -128 -384 -136 -425 l-7 -38 106 0 106 0 0 240
0 240 -30 0 c-18 0 -33 -7 -39 -17z"/>
<path d="M1110 2920 l0 -240 235 0 235 0 0 240 0 240 -235 0 -235 0 0 -240z"/>
<path d="M1600 2920 l0 -240 240 0 240 0 -2 238 -3 237 -237 3 -238 2 0 -240z"/>
<path d="M2097 3153 c-4 -3 -7 -111 -7 -240 l0 -233 240 0 240 0 0 240 0 240
-233 0 c-129 0 -237 -3 -240 -7z"/>
<path d="M2590 2920 l0 -240 235 0 235 0 0 240 0 240 -235 0 -235 0 0 -240z"/>
<path d="M3080 2920 l0 -240 235 0 235 0 0 240 0 240 -235 0 -235 0 0 -240z"/>
<path d="M3577 3154 c-4 -4 -7 -112 -7 -241 l0 -233 240 0 240 0 -2 238 -3
237 -231 3 c-127 1 -233 -1 -237 -4z"/>
<path d="M4067 3153 c-4 -3 -7 -111 -7 -240 l0 -233 240 0 240 0 0 240 0 240
-233 0 c-129 0 -237 -3 -240 -7z"/>
<path d="M4560 2920 l0 -240 235 0 235 0 0 240 0 240 -235 0 -235 0 0 -240z"/>
<path d="M5050 2920 l0 -240 240 0 240 0 -2 238 -3 237 -237 3 -238 2 0 -240z"/>
<path d="M5547 3153 c-4 -3 -7 -111 -7 -240 l0 -233 80 0 80 0 0 163 c0 90 3
198 6 240 l7 77 -80 0 c-44 0 -83 -3 -86 -7z"/>
<path d="M6736 3133 c-11 -51 -35 -257 -42 -355 l-7 -98 157 0 156 0 0 240 0
240 -129 0 -129 0 -6 -27z"/>
<path d="M7020 2920 l0 -240 240 0 240 0 -2 238 -3 237 -237 3 -238 2 0 -240z"/>
<path d="M7517 3153 c-4 -3 -7 -111 -7 -240 l0 -233 240 0 240 0 0 240 0 240
-233 0 c-129 0 -237 -3 -240 -7z"/>
<path d="M8010 2920 l0 -240 235 0 235 0 0 240 0 240 -235 0 -235 0 0 -240z"/>
<path d="M8500 2920 l0 -240 238 2 237 3 0 235 0 235 -237 3 -238 2 0 -240z"/>
<path d="M8990 2920 l0 -240 240 0 240 0 -2 238 -3 237 -237 3 -238 2 0 -240z"/>
<path d="M9487 3153 c-4 -3 -7 -111 -7 -240 l0 -233 231 0 232 0 -6 53 c-4 28
-12 122 -17 207 -6 85 -13 170 -16 188 l-5 32 -203 0 c-111 0 -206 -3 -209 -7z"/>
<path d="M866 2633 c-3 -16 -8 -71 -12 -123 -7 -102 8 -192 46 -277 l19 -43
85 0 86 0 0 235 0 235 -109 0 -109 0 -6 -27z"/>
<path d="M1110 2425 l0 -235 235 0 235 0 0 235 0 235 -235 0 -235 0 0 -235z"/>
<path d="M1600 2425 l0 -235 240 0 240 0 0 235 0 235 -240 0 -240 0 0 -235z"/>
<path d="M2090 2425 l0 -235 240 0 240 0 0 235 0 235 -240 0 -240 0 0 -235z"/>
<path d="M2590 2425 l0 -235 235 0 235 0 0 235 0 235 -235 0 -235 0 0 -235z"/>
<path d="M3080 2425 l0 -235 235 0 235 0 0 235 0 235 -235 0 -235 0 0 -235z"/>
<path d="M3570 2425 l0 -235 240 0 240 0 0 235 0 235 -240 0 -240 0 0 -235z"/>
<path d="M4060 2425 l0 -235 240 0 240 0 0 235 0 235 -240 0 -240 0 0 -235z"/>
<path d="M4560 2425 l0 -235 235 0 235 0 0 235 0 235 -235 0 -235 0 0 -235z"/>
<path d="M5050 2425 l0 -235 240 0 240 0 0 235 0 235 -240 0 -240 0 0 -235z"/>
<path d="M5540 2425 l0 -235 240 0 240 0 -2 218 -3 217 -157 3 c-131 2 -158 5
-158 17 0 12 -16 15 -80 15 l-80 0 0 -235z"/>
<path d="M6690 2645 c0 -12 -16 -15 -80 -15 l-80 0 0 -220 0 -220 235 0 235 0
0 235 0 235 -155 0 c-131 0 -155 -2 -155 -15z"/>
<path d="M7020 2425 l0 -235 240 0 240 0 0 235 0 235 -240 0 -240 0 0 -235z"/>
<path d="M7510 2425 l0 -235 240 0 240 0 0 235 0 235 -240 0 -240 0 0 -235z"/>
<path d="M8010 2425 l0 -235 235 0 235 0 0 235 0 235 -235 0 -235 0 0 -235z"/>
<path d="M8500 2425 l0 -235 240 0 240 0 0 235 0 235 -240 0 -240 0 0 -235z"/>
<path d="M8990 2425 l0 -235 240 0 240 0 0 235 0 235 -240 0 -240 0 0 -235z"/>
<path d="M9480 2425 l0 -235 241 0 241 0 -4 218 c-3 119 -8 225 -13 235 -6 15
-28 17 -236 17 l-229 0 0 -235z"/>
<path d="M6040 2628 c0 -2 -1 -101 -3 -221 l-2 -217 238 0 237 0 -2 218 -3
217 -232 3 c-128 1 -233 1 -233 0z"/>
<path d="M940 2164 c0 -9 81 -121 119 -164 l30 -35 1 103 0 102 -75 0 c-41 0
-75 -3 -75 -6z"/>
<path d="M1110 2056 l0 -114 48 -42 c121 -108 306 -210 379 -210 l43 0 0 240
0 240 -235 0 -235 0 0 -114z"/>
<path d="M1600 1930 l0 -240 238 2 237 3 3 238 2 237 -240 0 -240 0 0 -240z"/>
<path d="M2092 1933 l3 -238 235 0 235 0 3 238 2 237 -240 0 -240 0 2 -237z"/>
<path d="M2590 1930 l0 -240 235 0 235 0 0 240 0 240 -235 0 -235 0 0 -240z"/>
<path d="M3080 1930 l0 -240 235 0 235 0 0 240 0 240 -235 0 -235 0 0 -240z"/>
<path d="M3572 1933 l3 -238 235 0 235 0 3 238 2 237 -240 0 -240 0 2 -237z"/>
<path d="M4062 1933 l3 -238 238 -3 237 -2 0 240 0 240 -240 0 -240 0 2 -237z"/>
<path d="M4560 1930 l0 -240 235 0 235 0 0 240 0 240 -235 0 -235 0 0 -240z"/>
<path d="M5050 1925 l0 -245 -245 0 -245 0 0 -240 0 -240 58 0 57 1 48 80
c153 254 426 512 705 665 l102 56 0 84 0 84 -240 0 -240 0 0 -245z"/>
<path d="M5540 2089 c0 -93 -12 -88 110 -43 41 15 161 49 265 75 l190 47 -282
1 -283 1 0 -81z"/>
<path d="M6475 2165 c6 -2 81 -20 168 -40 87 -20 203 -52 258 -70 l99 -34 0
75 0 74 -267 -1 c-148 0 -263 -2 -258 -4z"/>
<path d="M7020 2090 l0 -79 91 -46 c101 -51 212 -123 310 -202 36 -29 69 -53
73 -53 3 0 6 104 6 230 l0 230 -240 0 -240 0 0 -80z"/>
<path d="M7512 1933 l3 -238 238 -3 237 -2 0 240 0 240 -240 0 -240 0 2 -237z"/>
<path d="M8010 1930 l0 -240 235 0 235 0 0 240 0 240 -235 0 -235 0 0 -240z"/>
<path d="M8500 1930 l0 -240 238 2 237 3 0 235 0 235 -237 3 -238 2 0 -240z"/>
<path d="M8992 1933 l3 -238 235 0 235 0 3 238 2 237 -240 0 -240 0 2 -237z"/>
<path d="M9482 1933 l3 -238 238 -3 237 -2 0 240 0 240 -240 0 -240 0 2 -237z"/>
<path d="M9980 1780 l0 -90 39 0 c22 0 42 3 44 8 3 4 1 34 -4 67 -16 104 -16
105 -49 105 l-30 0 0 -90z"/>
<path d="M1481 1675 c3 -2 71 -18 151 -35 125 -26 167 -30 297 -30 l151 0 0
35 0 35 -302 0 c-166 0 -299 -2 -297 -5z"/>
<path d="M2090 1645 l0 -35 220 -2 c121 -1 228 -2 238 -2 13 -1 18 8 20 37 l3
37 -240 0 -241 0 0 -35z"/>
<path d="M2590 1640 l0 -40 235 0 235 0 0 40 0 40 -235 0 -235 0 0 -40z"/>
<path d="M3080 1640 l0 -40 235 0 235 0 0 40 0 40 -235 0 -235 0 0 -40z"/>
<path d="M3570 1640 c0 -36 3 -40 25 -40 46 0 144 -154 210 -327 l27 -73 109
0 109 0 0 240 0 240 -240 0 -240 0 0 -40z"/>
<path d="M4064 1667 c-2 -7 -3 -114 -2 -237 l3 -225 238 -3 237 -2 0 240 0
240 -235 0 c-182 0 -237 -3 -241 -13z"/>
<path d="M7530 1674 c0 -4 34 -42 75 -85 88 -93 182 -216 239 -316 l41 -72 53
-1 52 0 0 240 0 240 -230 0 c-126 0 -230 -3 -230 -6z"/>
<path d="M8010 1440 l0 -240 235 0 235 0 0 240 0 240 -235 0 -235 0 0 -240z"/>
<path d="M8500 1440 l0 -240 238 2 237 3 0 235 0 235 -237 3 -238 2 0 -240z"/>
<path d="M8990 1440 l0 -240 240 0 240 0 0 240 0 240 -240 0 -240 0 0 -240z"/>
<path d="M9484 1667 c-2 -7 -3 -114 -2 -237 l3 -225 238 -3 237 -2 0 240 0
240 -235 0 c-182 0 -237 -3 -241 -13z"/>
<path d="M9980 1440 l0 -240 85 0 c83 0 85 1 80 23 -3 12 -19 108 -35 212 -43
272 -34 245 -86 245 l-44 0 0 -240z"/>
<path d="M3840 1183 c0 -5 15 -60 34 -123 18 -63 46 -168 61 -232 l27 -118 44
0 44 0 -2 238 -3 237 -102 3 c-57 1 -103 -1 -103 -5z"/>
<path d="M4067 1183 c-4 -3 -7 -111 -7 -240 l0 -233 218 0 219 0 21 85 c18 70
22 115 22 240 l0 155 -233 0 c-129 0 -237 -3 -240 -7z"/>
<path d="M4560 1078 l1 -113 49 104 c28 57 50 108 50 112 0 5 -22 9 -50 9
l-50 0 0 -112z"/>
<path d="M7900 1181 c0 -4 20 -50 45 -102 l44 -94 1 103 0 102 -45 0 c-25 0
-45 -4 -45 -9z"/>
<path d="M8010 1048 c0 -113 5 -163 22 -240 l23 -98 213 0 212 0 0 240 0 240
-235 0 -235 0 0 -142z"/>
<path d="M8500 950 l0 -240 238 2 237 3 0 235 0 235 -237 3 -238 2 0 -240z"/>
<path d="M8997 1184 c-4 -4 -7 -112 -7 -241 l0 -233 240 0 240 0 -2 238 -3
237 -231 3 c-127 1 -233 -1 -237 -4z"/>
<path d="M9487 1183 c-4 -3 -7 -111 -7 -240 l0 -233 240 0 240 0 0 240 0 240
-233 0 c-129 0 -237 -3 -240 -7z"/>
<path d="M9980 950 l0 -240 125 0 c93 0 125 3 125 13 0 6 -16 100 -35 207 -19
107 -37 210 -40 228 l-6 32 -84 0 -85 0 0 -240z"/>
<path d="M3970 673 c1 -48 12 -63 46 -63 33 0 34 1 34 40 l0 40 -40 0 c-31 0
-40 -4 -40 -17z"/>
<path d="M4060 455 l0 -235 206 0 206 0 -7 62 c-6 58 5 245 21 361 l7 47 -217
0 -216 0 0 -235z"/>
<path d="M8063 660 c13 -60 29 -299 25 -369 l-3 -71 198 0 197 0 0 235 0 235
-211 0 -211 0 5 -30z"/>
<path d="M8500 455 l0 -235 240 0 240 0 0 235 0 235 -240 0 -240 0 0 -235z"/>
<path d="M8990 455 l0 -235 240 0 240 0 0 235 0 235 -240 0 -240 0 0 -235z"/>
<path d="M9480 455 l0 -235 240 0 240 0 0 235 0 235 -240 0 -240 0 0 -235z"/>
<path d="M9980 455 l0 -235 176 0 c162 0 175 1 170 18 -3 9 -24 115 -47 235
l-41 217 -129 0 -129 0 0 -235z"/>
<path d="M4060 189 c0 -7 5 -52 12 -100 l12 -89 204 0 205 0 -7 41 c-4 22 -9
67 -13 100 l-6 59 -203 0 c-146 0 -204 -3 -204 -11z"/>
<path d="M8076 123 c-4 -43 -10 -88 -13 -100 l-5 -23 211 0 211 0 0 100 0 100
-199 0 -198 0 -7 -77z"/>
<path d="M8500 100 l0 -100 240 0 241 0 -3 98 -3 97 -237 3 -238 2 0 -100z"/>
<path d="M8990 100 l0 -100 240 0 240 0 0 100 0 100 -240 0 -240 0 0 -100z"/>
<path d="M9480 100 l0 -100 240 0 240 0 0 100 0 100 -240 0 -240 0 0 -100z"/>
<path d="M9980 100 l0 -100 195 0 195 0 -1 23 c0 12 -8 56 -17 97 l-17 75
-177 3 -178 2 0 -100z"/>
</g>
</svg>
